<?xml version="1.0" standalone="no"?>
<!DOCTYPE svg PUBLIC "-//W3C//DTD SVG 20010904//EN"
 "http://www.w3.org/TR/2001/REC-SVG-20010904/DTD/svg10.dtd">
<svg version="1.0" xmlns="http://www.w3.org/2000/svg"
 width="700.000000pt" height="700.000000pt" viewBox="0 0 700.000000 700.000000"
 preserveAspectRatio="xMidYMid meet">
<metadata>
Created by potrace 1.14, written by Peter Selinger 2001-2017
</metadata>
<g transform="translate(0.000000,700.000000) scale(0.100000,-0.100000)"
fill="#000000" stroke="none">
<path d="M5018 6606 c-56 -15 -114 -52 -183 -116 -45 -42 -58 -49 -135 -64
-93 -20 -274 -84 -323 -115 l-31 -19 -68 34 c-190 96 -418 166 -635 194 -150
20 -479 8 -628 -24 -296 -62 -563 -187 -785 -367 l-64 -52 -81 11 c-112 17
-257 15 -355 -4 l-82 -15 -67 34 c-182 95 -335 68 -475 -84 -106 -115 -194
-322 -231 -548 -26 -152 -17 -389 19 -526 51 -190 167 -385 293 -491 68 -58
161 -117 217 -138 26 -10 46 -22 44 -26 -2 -5 -41 -51 -87 -103 l-83 -95 -107
-27 c-140 -36 -372 -111 -396 -128 -12 -9 -16 -20 -12 -32 9 -22 21 -20 217
38 85 25 172 48 193 52 l37 7 -25 -43 c-58 -102 -26 -133 145 -136 63 -1 114
-6 112 -10 -10 -31 -59 -113 -67 -113 -5 0 -32 7 -59 15 -136 41 -308 -7 -436
-122 -118 -107 -193 -240 -226 -402 -20 -104 -15 -364 11 -481 41 -186 124
-388 220 -537 105 -161 304 -334 470 -408 72 -32 217 -75 252 -75 22 0 25 -3
19 -27 -4 -16 -9 -84 -12 -153 -5 -94 -2 -143 10 -200 38 -179 144 -315 309
-394 126 -61 210 -78 403 -84 l161 -4 37 -77 c108 -217 247 -338 451 -392 107
-29 357 -31 490 -6 249 49 442 115 535 182 49 37 65 44 89 39 46 -9 122 39
206 128 l72 78 84 -39 c308 -141 512 -197 769 -208 338 -14 630 65 776 211
104 104 141 213 131 386 -15 275 -194 477 -516 581 l-84 27 -28 113 c-35 138
-100 276 -162 345 l-47 52 40 40 c87 86 37 153 -171 232 l-85 32 -91 222 c-50
121 -98 238 -107 258 l-16 38 147 116 c82 65 180 148 218 185 l70 68 146 10
c170 13 204 18 220 37 20 25 2 98 -57 230 -4 8 21 14 73 19 159 14 243 42 243
82 0 61 -89 269 -167 392 -19 29 -32 58 -30 65 3 6 35 22 72 36 37 14 86 41
109 61 37 33 40 38 29 62 -7 14 -35 43 -62 64 -27 21 -50 41 -50 46 -1 9 200
8 309 -2 91 -9 110 -7 110 15 0 33 -109 52 -356 61 l-174 6 -112 92 c-142 116
-176 151 -163 169 6 7 38 47 72 87 220 262 297 636 204 993 -55 208 -145 370
-274 493 -146 139 -286 187 -429 149z m175 -113 c66 -36 181 -151 240 -240
116 -175 168 -343 171 -550 0 -72 -2 -134 -6 -138 -10 -11 -106 -7 -144 5
l-34 12 0 111 c0 80 -6 131 -21 187 -23 87 -54 145 -71 134 -6 -4 -9 -3 -5 2
3 5 -1 18 -8 28 -13 17 -14 17 -21 -8 -3 -14 -9 -26 -13 -26 -4 0 -27 -30 -51
-67 -61 -92 -149 -177 -236 -224 -57 -31 -72 -44 -67 -57 10 -26 85 -102 118
-119 28 -15 28 -17 10 -24 -55 -21 -70 -13 -102 59 -17 37 -46 105 -64 152
-27 66 -35 79 -37 59 -5 -40 44 -246 89 -376 120 -349 279 -592 498 -763 38
-30 70 -58 70 -61 1 -3 -31 -9 -69 -13 -39 -3 -150 -22 -247 -41 -97 -19 -177
-34 -178 -33 -1 2 -12 24 -24 51 l-23 47 51 63 c45 55 62 87 46 87 -11 0 -69
-33 -114 -64 l-46 -33 -40 18 c-61 28 -176 25 -241 -5 -50 -23 -118 -82 -162
-139 l-21 -28 -48 16 c-50 17 -182 36 -196 28 -13 -8 4 -19 48 -33 22 -7 66
-26 98 -43 61 -32 60 -28 40 -89 -11 -37 26 -16 116 66 122 111 199 150 296
150 52 0 81 -6 112 -22 37 -19 89 -70 80 -79 -2 -1 -69 -21 -148 -43 -165 -45
-332 -103 -336 -117 -5 -14 70 -2 307 50 246 54 264 58 549 106 l225 38 68
-50 c42 -32 63 -54 55 -58 -6 -3 -61 -14 -122 -23 -60 -10 -121 -20 -134 -22
l-24 -5 34 -35 c38 -40 37 -41 -18 -14 -51 24 -123 37 -123 21 0 -6 15 -17 33
-24 69 -29 175 -107 238 -175 59 -64 138 -187 127 -198 -3 -2 -25 5 -49 15
-70 31 -208 48 -268 32 -28 -7 -59 -10 -71 -6 -11 3 -20 4 -20 1 0 -7 69 -36
78 -33 10 3 164 -95 158 -101 -7 -6 -142 -3 -183 4 -17 3 -34 12 -37 20 -4 11
-1 12 12 6 20 -10 32 -10 50 1 7 5 12 4 12 -2 0 -6 5 -11 11 -11 5 0 8 4 5 8
-3 5 1 9 9 9 8 0 12 -4 9 -9 -3 -4 1 -8 8 -9 7 0 23 -2 36 -5 31 -6 21 8 -31
43 -40 26 -48 28 -130 25 l-86 -3 23 -22 c13 -12 21 -27 19 -33 -2 -6 16 -29
39 -51 37 -34 100 -105 148 -167 14 -18 14 -19 -7 -7 -13 6 -23 8 -23 4 0 -4
-9 3 -20 17 -11 14 -18 18 -14 8 5 -14 -5 -17 -63 -23 -101 -9 -193 -26 -193
-36 0 -5 19 -19 43 -31 l42 -23 -53 -3 c-46 -3 -52 -5 -47 -21 8 -26 -25 -62
-164 -181 -316 -269 -551 -404 -866 -496 -586 -171 -1230 -74 -1833 278 -67
40 -121 77 -119 83 2 5 23 21 46 34 37 21 41 25 26 34 -10 5 -57 7 -106 5
l-88 -4 22 39 c12 22 40 60 62 85 l40 45 -75 -7 c-41 -3 -101 -13 -133 -22
-33 -8 -61 -13 -64 -11 -8 9 93 90 169 135 43 26 78 49 78 53 0 3 -25 4 -56 1
-53 -4 -55 -3 -46 14 19 35 87 92 124 105 69 24 24 27 -107 7 -81 -12 -150
-29 -184 -44 -30 -14 -58 -21 -62 -17 -5 5 0 9 11 10 11 1 39 15 62 31 58 40
184 102 297 146 95 38 353 115 451 135 30 7 64 14 76 17 17 5 32 -11 89 -91
61 -86 223 -255 245 -255 5 0 57 -71 116 -158 167 -247 254 -345 372 -423 94
-62 158 -83 252 -82 162 2 258 74 405 303 134 211 247 371 264 376 9 3 45 19
80 36 131 64 220 192 257 366 l17 82 36 0 c61 0 281 -29 376 -49 88 -19 168
-44 291 -92 52 -19 64 -21 78 -10 24 20 6 43 -63 80 -179 95 -484 151 -756
138 -119 -6 -199 -17 -212 -30 -17 -17 17 -27 92 -27 46 0 86 -4 89 -9 9 -15
-32 -159 -60 -212 -90 -165 -276 -243 -489 -205 -144 25 -271 111 -328 222
-22 42 -26 46 -32 29 -84 -243 -318 -373 -579 -322 -160 32 -271 99 -403 242
-43 47 -79 89 -81 94 -1 4 55 18 125 30 200 35 192 58 -16 48 -328 -16 -765
-144 -998 -293 -32 -20 -87 -53 -123 -72 -98 -53 -176 -113 -200 -154 -14 -26
-17 -38 -9 -38 13 0 -20 -29 -33 -30 -14 0 46 126 98 205 28 44 98 128 154
188 56 59 97 107 91 107 -12 0 -104 -61 -138 -93 -30 -27 -31 -5 -2 42 11 18
18 35 15 38 -2 3 -69 -6 -148 -20 -246 -44 -243 -44 -186 18 30 32 42 37 138
55 328 61 796 113 1272 139 92 5 173 13 180 17 27 17 -57 25 -299 31 -167 4
-253 9 -253 16 0 24 53 85 93 107 33 19 61 25 128 28 129 6 224 -26 369 -125
54 -37 66 -42 68 -28 2 10 -5 30 -16 45 l-21 27 37 36 c20 20 68 56 106 81 52
34 65 47 53 52 -26 9 -146 -31 -202 -69 l-51 -33 -39 29 c-22 16 -69 44 -105
61 -57 27 -75 31 -150 30 -66 0 -96 -5 -136 -23 l-52 -22 -67 20 c-37 12 -73
21 -81 21 -29 0 -12 -30 36 -65 50 -36 50 -38 35 -61 -8 -13 -21 -48 -29 -76
l-13 -53 -44 -3 c-191 -11 -621 -65 -773 -97 -38 -8 -71 -13 -74 -11 -2 3 31
44 73 93 128 148 208 281 259 434 57 169 102 490 92 649 -2 41 -5 86 -5 100
-2 36 -21 4 -21 -35 -1 -54 -5 -56 -146 -51 -188 7 -324 46 -470 136 -29 19
-32 19 -46 2 -9 -9 -21 -48 -26 -87 -14 -94 -22 -337 -13 -403 6 -41 4 -58 -9
-80 -25 -39 -59 -67 -69 -56 -13 14 -59 147 -78 227 -26 108 -23 341 5 473 74
342 216 562 350 541 39 -7 194 -81 212 -101 7 -10 -3 -21 -39 -45 -27 -17 -67
-53 -89 -79 -43 -52 -102 -141 -102 -155 0 -5 42 34 92 86 108 110 179 150
304 172 120 22 233 18 377 -11 l28 -6 -36 -43 c-19 -24 -35 -48 -35 -54 0 -28
40 -3 133 84 180 168 343 272 550 349 107 40 142 43 85 8 -107 -66 -224 -184
-249 -250 -14 -37 -11 -84 8 -104 31 -35 74 -23 179 49 168 114 322 182 515
225 87 19 132 23 274 23 181 0 229 -7 383 -56 51 -16 107 -29 125 -29 32 0 70
25 79 52 10 28 210 -94 380 -230 47 -39 89 -68 92 -65 17 17 -129 173 -215
230 -22 14 -39 29 -39 33 0 12 164 87 252 115 167 53 290 45 440 -30 36 -19
69 -31 72 -28 9 9 -74 70 -131 97 -28 14 -78 30 -112 37 -34 7 -61 16 -61 19
0 15 130 136 165 152 51 24 110 18 178 -19z m173 -592 c23 -100 15 -316 -15
-416 -39 -133 -162 -338 -192 -319 -16 10 -129 251 -129 275 0 4 16 13 35 19
37 12 95 55 95 71 0 4 -23 18 -51 30 l-51 22 28 21 c94 68 182 180 224 285 37
95 20 106 -28 18 -55 -99 -154 -204 -231 -245 -32 -18 -65 -32 -72 -31 -8 0
14 13 48 30 75 36 186 144 227 221 15 29 40 68 53 87 31 40 36 34 59 -68z
m-206 -125 c0 -2 -8 -10 -17 -17 -16 -13 -17 -12 -4 4 13 16 21 21 21 13z
m-3872 -396 c29 -27 61 -50 72 -50 11 0 20 -3 20 -8 0 -4 28 -17 63 -29 62
-22 87 -28 162 -39 54 -8 57 -14 8 -14 -60 0 -187 35 -252 70 -55 30 -157 120
-135 120 6 0 34 -22 62 -50z m102 -147 c36 -17 88 -37 115 -44 28 -7 52 -14
54 -16 6 -4 -40 -41 -71 -58 -16 -9 -28 -19 -28 -24 0 -16 56 -33 128 -40 l73
-6 -26 -35 c-24 -32 -24 -36 -8 -47 9 -8 46 -13 86 -13 60 0 68 -2 63 -17 -3
-10 -19 -73 -35 -140 -37 -147 -47 -173 -63 -173 -26 0 -141 61 -199 106 -131
101 -237 269 -264 419 -15 86 -18 155 -9 202 l6 29 57 -55 c31 -31 85 -70 121
-88z m460 -69 c-14 -107 -15 -109 -53 -127 -37 -17 -97 -31 -81 -20 5 4 16 23
23 41 16 38 37 56 29 24 -8 -28 6 -36 30 -21 13 8 23 33 32 78 16 89 18 103
20 126 2 18 3 18 7 2 3 -10 0 -56 -7 -103z m3581 34 l38 -11 -44 -57 c-42 -54
-130 -140 -144 -140 -3 0 -27 33 -53 73 l-48 72 62 62 61 61 45 -24 c25 -13
62 -29 83 -36z m-3776 -34 l-15 -37 39 7 c22 3 48 8 58 11 10 3 3 -2 -16 -11
-19 -8 -57 -18 -85 -21 l-50 -6 39 46 c22 26 41 46 43 47 1 0 -5 -16 -13 -36z
m-435 -194 c0 -10 -6 -22 -12 -28 -10 -8 -13 4 -14 51 -2 61 -2 61 12 28 8
-18 14 -41 14 -51z m313 -321 c74 -40 83 -53 12 -19 -22 11 -48 19 -57 20 -10
0 -18 4 -18 8 0 4 -8 8 -18 9 -13 1 -26 -15 -45 -55 -37 -80 -37 -80 11 -108
46 -26 67 -31 56 -12 -4 7 -3 8 5 4 6 -4 9 -11 7 -15 -3 -4 17 -15 45 -25 42
-15 52 -16 66 -5 15 13 15 12 4 -8 -6 -13 -13 -23 -15 -23 -33 0 -239 98 -234
111 61 139 83 177 95 167 7 -6 46 -28 86 -49z m143 -53 c1 -1 -12 -30 -29 -65
-17 -35 -33 -59 -34 -54 -2 6 5 26 16 44 25 41 26 53 5 74 -15 15 -14 15 12 9
16 -4 30 -7 30 -8z m3704 -692 c0 -8 -19 -13 -24 -6 -3 5 1 9 9 9 8 0 15 -2
15 -3z m-1157 -230 c93 -7 97 -8 91 -28 -16 -50 -47 -98 -70 -106 -33 -13 -96
-13 -129 0 -30 12 -55 63 -55 116 0 36 1 36 33 30 17 -3 76 -9 130 -12z
m-2558 -65 c-99 -58 -128 -72 -120 -60 3 6 32 24 63 40 31 16 66 36 77 45 11
8 27 16 35 16 8 0 -17 -18 -55 -41z m-387 23 c9 -6 5 -12 -14 -21 -33 -15 -27
-21 38 -41 71 -21 73 -38 5 -32 -73 6 -81 -11 -17 -39 27 -12 50 -25 50 -29 0
-4 -27 -11 -60 -16 -34 -5 -61 -13 -61 -19 0 -5 26 -19 58 -30 92 -31 93 -34
25 -66 -35 -17 -71 -44 -87 -65 -33 -43 -65 -123 -65 -162 0 -15 -4 -32 -8
-38 -28 -42 -206 -44 -307 -3 l-60 25 3 44 c5 59 46 182 84 248 66 116 188
216 294 241 50 12 106 13 122 3z m474 -25 c-35 -38 -29 -49 26 -43 26 3 38 3
27 0 -18 -5 -94 -28 -135 -42 -8 -3 10 21 40 52 30 31 56 56 59 56 2 0 -5 -10
-17 -23z m68 -133 c-33 -61 -39 -78 -29 -90 6 -8 9 -17 5 -21 -3 -3 -6 0 -6 7
0 9 -5 8 -13 -5 -9 -12 -16 -14 -21 -7 -7 11 27 85 70 154 42 65 38 41 -6 -38z
m75 -89 c-44 -8 -81 -12 -83 -10 -2 2 13 7 34 10 22 4 44 8 49 10 6 2 26 3 45
3 19 0 -1 -6 -45 -13z m2075 -5 c72 -20 136 -45 144 -58 9 -14 -79 -136 -133
-185 -44 -39 -138 -87 -171 -87 -6 0 -10 16 -10 35 0 19 -4 35 -10 35 -8 0
-14 -14 -8 -22 1 -2 -4 -14 -11 -27 -12 -22 -17 -23 -73 -18 -38 3 -83 17
-122 36 -67 33 -186 128 -186 148 0 32 138 106 260 140 103 27 225 29 320 3z
m-2375 -62 c-3 -13 -9 -44 -12 -69 -4 -35 -1 -49 13 -63 16 -17 30 -18 129
-12 60 3 126 9 146 12 35 6 37 5 43 -29 8 -44 51 -82 109 -98 34 -9 152 -62
166 -75 7 -6 -50 -164 -89 -250 -44 -95 -131 -227 -163 -249 -34 -22 -163 -30
-228 -15 -157 36 -311 163 -388 320 -51 104 -74 208 -69 315 4 102 25 136 101
160 28 10 67 27 86 38 35 21 83 34 135 36 25 1 28 -2 21 -21z m1776 -55 c13
-16 12 -17 -3 -4 -10 7 -18 15 -18 17 0 8 8 3 21 -13z m1448 -486 c50 -126 91
-235 91 -243 0 -16 57 -74 111 -113 21 -16 35 -32 31 -36 -4 -5 -1 -5 5 -1 7
4 20 3 29 -2 13 -7 6 -11 -26 -16 -27 -4 -47 -3 -54 4 -8 8 -6 9 8 4 13 -5 17
-4 12 4 -4 7 -14 12 -23 12 -19 0 -63 40 -63 58 0 7 -5 10 -10 7 -6 -4 -10 -3
-9 2 3 19 -2 34 -10 29 -5 -3 -8 2 -7 12 1 13 -8 18 -37 20 -46 4 -115 -32
-189 -98 l-52 -47 -78 236 c-43 129 -83 240 -88 245 -10 10 5 36 21 36 17 0
185 99 204 120 15 17 21 18 31 8 7 -7 53 -116 103 -241z m-2422 154 c76 -55
298 -143 478 -189 140 -36 275 -60 395 -70 l84 -7 23 -80 c25 -88 93 -370 93
-387 0 -6 -16 5 -36 25 -56 55 -171 115 -264 138 -74 19 -93 21 -148 11 -93
-15 -167 -56 -243 -131 -99 -99 -132 -179 -92 -223 22 -25 33 -23 132 21 105
47 167 61 274 61 146 0 272 -49 375 -145 48 -46 54 -55 62 -110 18 -112 49
-409 44 -414 -2 -3 -24 -4 -47 -2 -61 3 -210 -17 -302 -41 -88 -23 -208 -68
-201 -75 2 -2 51 7 108 21 292 73 490 72 646 -5 167 -82 266 -273 231 -449
-13 -68 -71 -166 -114 -194 -30 -20 -30 -20 -4 39 42 95 8 266 -66 335 l-26
24 28 -59 c37 -80 40 -214 7 -286 -41 -89 -142 -159 -284 -198 -41 -12 -78
-21 -82 -21 -5 0 6 26 24 58 31 53 33 63 32 147 0 73 -4 99 -23 138 -29 60
-41 68 -30 19 13 -52 12 -162 0 -209 -19 -68 -73 -128 -148 -160 -81 -35 -305
-13 -411 41 -71 36 -194 156 -257 250 -99 149 -203 399 -249 599 -22 94 -19
129 4 40 10 -39 24 -91 33 -115 8 -24 22 -70 32 -103 44 -156 152 -372 238
-475 23 -27 57 -44 43 -21 -3 5 -6 54 -7 110 -1 98 -2 104 -34 151 -45 67
-103 218 -169 445 -101 340 -115 375 -156 375 -59 0 -163 -238 -200 -460 -21
-126 -8 -114 -113 -105 -99 8 -110 9 -202 2 -67 -5 -69 -11 -30 -62 28 -36 58
-67 105 -103 85 -67 259 -122 295 -92 11 10 20 8 41 -9 43 -34 99 -26 151 21
21 20 21 20 33 -2 16 -30 5 -36 -80 -44 -74 -8 -209 6 -283 29 -128 39 -251
134 -301 233 -32 63 -32 64 -1 52 15 -6 47 -11 72 -12 41 -1 50 2 80 35 18 20
33 46 33 57 0 31 -26 76 -83 144 -57 68 -106 166 -114 225 -12 87 99 339 194
442 80 86 113 103 194 103 84 -1 158 -34 224 -101 50 -50 65 -52 41 -5 -63
121 -182 179 -353 170 l-94 -5 63 67 c68 72 161 218 201 315 23 56 56 162 71
228 8 34 14 34 63 -2z m2054 -147 c9 -38 36 -136 58 -219 41 -150 75 -314 67
-323 -3 -2 -19 6 -37 19 -23 16 -31 18 -27 8 55 -144 99 -354 105 -506 6 -140
4 -143 -60 -88 -22 19 -44 35 -47 35 -4 0 -3 -19 1 -42 28 -136 41 -280 36
-398 -6 -124 -25 -226 -43 -224 -8 1 -38 47 -87 136 l-19 32 -37 -90 c-20 -49
-54 -120 -74 -156 -41 -73 -136 -192 -145 -183 -4 3 -19 55 -33 116 -59 237
-154 366 -337 456 l-97 48 -7 100 c-4 55 -19 174 -33 265 -52 337 -105 543
-191 755 -25 61 -48 118 -51 128 -5 16 6 17 140 17 286 0 577 57 815 160 37
16 71 28 76 27 5 -2 17 -34 27 -73z m-3234 -53 c23 -48 60 -111 83 -140 23
-29 40 -56 38 -60 -7 -17 -136 -126 -192 -163 l-60 -38 -42 42 c-68 70 -116
154 -159 280 -21 61 -22 68 -7 72 9 2 51 12 92 21 41 10 102 30 135 46 33 15
62 28 65 28 3 0 24 -39 47 -88z m-374 -32 c-24 -24 53 -240 129 -366 19 -33
19 -33 55 -18 49 21 53 12 4 -10 -22 -9 -44 -14 -50 -10 -30 18 -171 350 -171
401 0 8 10 14 22 14 16 0 19 -3 11 -11z m742 -328 c28 -10 76 -24 108 -31 32
-6 57 -15 55 -18 -42 -78 -98 -290 -98 -371 0 -31 -4 -51 -8 -44 -4 7 -5 41
-2 77 l5 66 -36 0 c-50 0 -190 27 -233 45 -34 15 -37 14 -64 -10 -16 -14 -37
-31 -47 -39 -29 -21 -13 -41 74 -89 145 -82 274 -124 291 -96 7 11 10 10 16
-4 3 -10 4 -21 0 -24 -12 -12 -173 38 -257 81 -80 40 -178 104 -179 116 0 3
15 14 33 24 50 30 197 187 247 264 25 39 45 71 45 71 0 1 23 -8 50 -18z m3452
-91 c71 -41 169 -134 214 -203 55 -84 95 -216 114 -373 l7 -51 -119 -7 c-66
-4 -125 -11 -133 -16 -7 -4 38 -11 106 -15 163 -9 234 -20 339 -50 297 -86
435 -256 405 -497 -20 -163 -114 -263 -306 -326 -32 -11 -75 -22 -94 -26 l-35
-6 42 42 c80 82 115 211 90 331 -12 54 -27 45 -27 -16 0 -29 -7 -78 -16 -108
-32 -108 -87 -175 -185 -224 -53 -27 -167 -60 -176 -51 -3 3 9 17 26 32 40 34
78 99 102 175 35 113 18 153 -21 47 -40 -111 -97 -175 -192 -218 -61 -28 -110
-25 -229 14 -88 29 -412 165 -426 180 -3 3 6 20 20 38 14 18 36 58 49 88 21
51 23 70 24 237 0 150 3 186 16 200 9 10 23 32 31 49 9 17 46 59 83 94 89 83
179 125 300 140 49 7 103 14 120 16 40 6 84 49 84 82 0 40 -68 98 -130 111
-66 14 -94 14 -155 -3 -78 -20 -148 -60 -214 -122 -39 -36 -62 -51 -65 -43
-18 67 -41 204 -41 246 0 48 3 55 45 98 64 66 135 112 215 140 39 14 72 25 75
25 3 0 28 -14 57 -30z m-2697 -857 c-10 -16 -11 -15 -6 7 3 14 6 34 7 45 1 13
3 11 6 -7 2 -15 -1 -35 -7 -45z m-21 -62 c-6 -18 -14 -30 -17 -27 -2 3 1 19 8
36 7 17 14 29 16 27 2 -2 -1 -18 -7 -36z m-39 -121 c-11 -41 -20 -111 -21
-155 -1 -66 -2 -75 -10 -50 -14 43 4 180 33 258 19 49 18 23 -2 -53z"/>
<path d="M3472 5950 c-225 -31 -443 -197 -506 -383 -21 -63 -20 -89 5 -121 32
-41 76 -35 204 28 120 59 253 104 385 132 125 27 356 25 468 -4 94 -24 128
-17 139 26 9 36 -21 84 -89 147 -139 129 -398 204 -606 175z"/>
<path d="M4471 5520 c-18 -4 -52 -21 -74 -37 -42 -29 -105 -108 -95 -118 3 -3
39 8 81 25 158 63 224 27 337 -183 23 -42 46 -75 51 -72 18 11 -12 176 -43
240 -32 65 -96 124 -152 140 -54 16 -56 16 -105 5z"/>
<path d="M4408 5384 c-37 -20 -40 -23 -18 -24 42 -1 120 -28 188 -66 36 -20
62 -32 58 -26 -3 6 -2 13 4 17 5 3 10 -2 10 -12 0 -10 9 -24 21 -31 19 -12 19
-11 -3 28 -13 22 -41 58 -64 81 -34 34 -50 42 -97 48 -47 6 -61 4 -99 -15z
m206 -63 c14 -15 15 -21 4 -27 -7 -4 -10 -3 -5 1 4 5 0 17 -10 27 -9 10 -14
18 -11 18 3 0 13 -9 22 -19z"/>
<path d="M3665 5370 c-100 -11 -217 -59 -285 -117 -125 -105 -119 -228 10
-203 25 5 90 21 145 35 123 32 296 43 413 26 107 -16 142 -1 142 63 0 39 -41
90 -104 131 -87 55 -203 79 -321 65z"/>
<path d="M2532 5349 c-92 -46 -156 -156 -171 -294 -8 -78 -3 -165 9 -165 5 0
22 35 40 78 84 205 120 259 194 287 24 9 62 15 87 13 l44 -3 -50 -8 c-99 -16
-155 -63 -211 -175 -20 -42 -40 -81 -43 -87 -2 -5 47 42 110 106 132 135 183
165 262 154 26 -3 47 -2 47 3 0 14 -76 71 -123 92 -57 27 -140 26 -195 -1z"/>
<path d="M3665 4693 c-66 -18 -125 -46 -125 -59 0 -10 6 -13 18 -10 67 19 157
28 271 25 72 -2 131 -1 131 3 0 4 -15 15 -32 25 -24 12 -61 18 -138 19 -58 2
-114 0 -125 -3z"/>
<path d="M3705 4589 c-88 -12 -180 -42 -228 -74 -38 -27 -50 -52 -19 -42 166
55 188 59 342 64 124 4 168 2 219 -11 35 -9 66 -14 68 -12 9 9 -42 46 -85 60
-58 20 -207 28 -297 15z"/>
<path d="M3745 4489 c-194 -26 -261 -98 -182 -197 53 -68 177 -152 221 -152 8
0 20 -8 25 -17 7 -12 13 -14 18 -8 5 6 28 23 53 37 64 37 139 115 166 173 13
28 24 56 24 63 0 31 -31 70 -69 85 -51 21 -168 28 -256 16z m216 -55 c15 -3
35 -15 45 -26 19 -21 19 -21 -1 -13 -38 16 -236 17 -310 2 -38 -9 -79 -19 -90
-23 -18 -7 -18 -6 -7 9 39 47 234 75 363 51z"/>
<path d="M4264 4264 c-43 -42 -15 -107 47 -107 35 0 69 31 69 65 0 25 -44 68
-70 68 -11 0 -32 -11 -46 -26z"/>
<path d="M3302 4240 c-49 -20 -48 -103 3 -116 60 -15 96 20 81 79 -4 18 -46
50 -59 46 -1 0 -12 -4 -25 -9z"/>
<path d="M5270 3726 c0 -2 20 -11 45 -20 50 -16 77 -13 68 10 -3 10 -22 14
-59 14 -30 0 -54 -2 -54 -4z"/>
<path d="M3940 3004 c-119 -63 -235 -66 -373 -9 -34 14 -69 29 -77 32 -29 12
22 -36 64 -61 69 -40 150 -59 235 -54 81 5 127 22 174 67 24 21 55 64 45 60
-2 -1 -32 -17 -68 -35z"/>
<path d="M5281 5214 c-12 -15 -21 -31 -21 -35 0 -5 -6 -9 -14 -9 -21 0 -38
-27 -32 -48 4 -10 20 -40 36 -66 26 -40 33 -45 49 -36 22 11 131 136 131 150
0 7 -112 70 -125 70 -2 0 -13 -12 -24 -26z"/>
<path d="M4618 2946 c-32 -17 -63 -37 -70 -44 -7 -7 -17 -12 -23 -12 -7 0 -19
-8 -29 -19 -13 -15 -15 -24 -6 -47 6 -16 13 -35 15 -43 6 -16 25 -5 126 76 57
46 68 60 63 77 -14 44 -17 45 -76 12z"/>
<path d="M2420 2881 c0 -19 269 -162 424 -226 48 -20 95 -34 103 -31 8 3 12 2
9 -3 -10 -15 218 -71 387 -96 33 -4 38 -3 33 12 -3 10 -10 37 -16 60 -13 50
-25 55 -179 68 -31 3 -65 7 -76 10 -29 6 -117 18 -137 19 -10 0 -18 4 -18 9 0
5 -13 7 -29 5 -18 -3 -28 0 -24 5 4 6 -3 8 -15 5 -12 -3 -22 -3 -24 1 -5 11
-168 62 -179 56 -5 -4 -9 -1 -9 4 0 6 -7 11 -15 11 -8 0 -61 23 -117 50 -107
52 -118 56 -118 41z"/>
<path d="M2103 2410 c-37 -43 -41 -55 -17 -46 14 5 15 4 5 -8 -10 -12 -9 -14
8 -9 12 3 18 10 15 15 -4 6 5 3 18 -6 23 -15 28 -15 79 3 30 11 48 20 42 20
-7 1 -12 7 -10 13 2 12 -75 57 -98 57 -5 1 -25 -17 -42 -39z"/>
<path d="M3067 1769 c-113 -17 -232 -112 -284 -224 -29 -64 -25 -100 11 -116
20 -9 39 -4 115 30 164 74 282 88 426 51 105 -27 131 -26 151 5 22 34 7 70
-55 128 -105 98 -241 145 -364 126z"/>
<path d="M4647 1480 c-14 -21 -17 -49 -17 -190 0 -178 -11 -240 -53 -313 -22
-39 -23 -43 -8 -58 29 -30 165 -89 172 -76 10 18 -9 199 -32 302 -11 50 -25
151 -32 225 -12 132 -13 135 -30 110z"/>
</g>
</svg>
